<svg version="1.1" xmlns="http://www.w3.org/2000/svg" xmlns:xlink="http://www.w3.org/1999/xlink" width="48px" height="48px" viewBox="0,0,256,256"><g fill="none" fill-rule="nonzero" stroke="none" stroke-width="1" stroke-linecap="butt" stroke-linejoin="miter" stroke-miterlimit="10" stroke-dasharray="" stroke-dashoffset="0" font-family="none" font-weight="none" font-size="none" text-anchor="none" style="mix-blend-mode: normal"><g transform="scale(5.33333,5.33333)"><path d="M31,14h13v-4c0,-2.209 -1.791,-4 -4,-4h-9z" fill="#b864f6"></path><path d="M40,6h-26c-2.209,0 -4,1.791 -4,4v28c0,2.209 1.791,4 4,4h18c2.209,0 4,-1.791 4,-4v-28c0,-2.209 1.791,-4 4,-4z" fill="#bbdefb"></path><path d="M32,42h-24c-2.209,0 -4,-1.791 -4,-4v-3h24v3c0,2.209 1.791,4 4,4zM16,14h14v2h-14zM16,19h10v2h-10zM16,24h14v2h-14zM16,29h10v2h-10z" fill="#b864f6"></path></g></g></svg>